<?xml version="1.0" encoding="UTF-8" standalone="no"?>
<!-- Generator: Adobe Illustrator 19.0.0, SVG Export Plug-In . SVG Version: 6.00 Build 0)  -->

<svg
   xmlns:dc="http://purl.org/dc/elements/1.1/"
   xmlns:cc="http://creativecommons.org/ns#"
   xmlns:rdf="http://www.w3.org/1999/02/22-rdf-syntax-ns#"
   xmlns:svg="http://www.w3.org/2000/svg"
   xmlns="http://www.w3.org/2000/svg"
   xmlns:sodipodi="http://sodipodi.sourceforge.net/DTD/sodipodi-0.dtd"
   xmlns:inkscape="http://www.inkscape.org/namespaces/inkscape"
   version="1.1"
   id="Layer_1"
   x="0px"
   y="0px"
   viewBox="0 0 374.79999 264.29999"
   xml:space="preserve"
   sodipodi:docname="logo_white.svg"
   width="374.79999"
   height="264.29999"
   inkscape:version="0.92.4 5da689c313, 2019-01-14"><metadata
   id="metadata4606"><rdf:RDF><cc:Work
       rdf:about=""><dc:format>image/svg+xml</dc:format><dc:type
         rdf:resource="http://purl.org/dc/dcmitype/StillImage" /><dc:title></dc:title></cc:Work></rdf:RDF></metadata><defs
   id="defs4604" /><sodipodi:namedview
   pagecolor="#81deff"
   bordercolor="#666666"
   borderopacity="1"
   objecttolerance="10"
   gridtolerance="10"
   guidetolerance="10"
   inkscape:pageopacity="0.21568627"
   inkscape:pageshadow="2"
   inkscape:window-width="3840"
   inkscape:window-height="1600"
   id="namedview4602"
   showgrid="false"
   fit-margin-top="0"
   fit-margin-left="0"
   fit-margin-right="0"
   fit-margin-bottom="0"
   inkscape:zoom="1.21125"
   inkscape:cx="211.4"
   inkscape:cy="140.1"
   inkscape:window-x="3200"
   inkscape:window-y="0"
   inkscape:window-maximized="0"
   inkscape:current-layer="Layer_1" />
<style
   type="text/css"
   id="style4582">
	.st0{fill:#000;}
	.st1{fill:#000;}
	.st2{fill:#000;}
</style>
<g
   id="XMLID_1_"
   transform="translate(-288.6,-275.8)"
   style="fill:#ffffff">
	<path
   id="XMLID_4_"
   class="st0"
   d="m 367.6,319.2 c 21.4,0 39.8,7.8 55.2,23.3 15.4,15.5 23.1,34.4 23.1,56.7 0,22.1 -7.6,40.8 -22.8,56.1 -15.2,15.3 -33.7,22.9 -55.3,22.9 -22.7,0 -41.6,-7.9 -56.6,-23.6 -15,-15.7 -22.6,-34.4 -22.6,-56 0,-14.5 3.5,-27.8 10.5,-39.9 7,-12.1 16.6,-21.8 28.9,-28.9 12.2,-7 25.4,-10.6 39.6,-10.6 z m -0.3,28.2 c -14,0 -25.8,4.9 -35.3,14.6 -9.5,9.7 -14.3,22.1 -14.3,37.1 0,16.7 6,30 18,39.7 9.3,7.6 20.1,11.4 32.1,11.4 13.7,0 25.3,-4.9 34.9,-14.8 9.6,-9.9 14.4,-22.1 14.4,-36.5 0,-14.4 -4.8,-26.6 -14.5,-36.6 -9.7,-9.9 -21.5,-14.9 -35.3,-14.9 z"
   inkscape:connector-curvature="0"
   style="fill:#ffffff" />
	<path
   id="XMLID_86_"
   class="st0"
   d="m 599.7,477.5 c 1.8,0.3 3.5,0.3 5.2,0.3 -2.6,0.2 -5.2,0.3 -7.9,0.3 -19.3,0 -38.1,-7 -50.1,-22.6 -5.1,-6.7 -8.8,-14.5 -10.8,-22.7 -2.1,-8.8 -1.8,-17.9 -1.6,-26.8 0.1,-2.4 0.1,-4.8 0.1,-7.2 0,-13.7 -0.6,-22.8 -1.8,-27.3 -1.2,-4.5 -3.4,-7.9 -6.4,-10.3 -3,-2.4 -6.8,-3.5 -11.3,-3.5 -5.8,0 -10.9,2 -15,5.9 -4.2,3.9 -7.1,9.3 -8.7,16.2 -0.8,3.6 -1.3,11.4 -1.3,23.3 v 71.2 H 461.2 V 345.8 l 28.9,-28 v 28.1 c 6.5,-5.5 12.5,-9.4 17.8,-11.5 5.3,-2.2 10.7,-3.2 16.3,-3.2 11.4,0 21.1,4 29,11.9 6.7,6.8 10,16.8 10,30 0,9.9 0,19.8 0.1,29.7 0,4 -0.3,16.7 -0.3,18.8 0,2 0,4.3 0.2,6.8 0.2,2.5 0.4,5.2 0.9,8.1 0.5,2.8 1,5.8 2,8.9 0.4,1.5 1,3 1.5,4.6 0.6,1.5 1.2,3.1 1.9,4.6 1.4,3.1 3.2,6 5.3,8.7 1.1,1.3 2.2,2.7 3.5,3.8 0.6,0.6 1.2,1.2 1.9,1.8 0.7,0.5 1.3,1.1 2,1.6 0.6,0.6 1.4,1 2.1,1.4 0.7,0.4 1.4,0.9 2.2,1.3 0.8,0.4 1.5,0.7 2.2,1.1 0.4,0.2 0.7,0.4 1.1,0.5 l 1.2,0.4 c 0.8,0.3 1.5,0.5 2.3,0.8 0.7,0.3 1.5,0.4 2.3,0.6 0.8,0.2 1.5,0.3 2.2,0.5 0.5,0.3 1.2,0.3 1.9,0.4 z"
   inkscape:connector-curvature="0"
   style="fill:#ffffff" />
	<path
   id="XMLID_82_"
   class="st1"
   d="m 663.4,418 c 0,16.9 -6.1,30.9 -18.6,42.6 -7.4,6.9 -16,11.8 -25.9,14.7 0,0 0,0 0,0 -1.3,0.2 -2.7,0.2 -4.3,0.4 -2,0.2 -4.2,0.1 -6.7,0.2 -1.2,0 -2.5,-0.2 -3.8,-0.3 -1.3,-0.1 -2.6,-0.3 -4,-0.6 -0.7,-0.1 -1.4,-0.2 -2.1,-0.4 -0.7,-0.2 -1.4,-0.4 -2,-0.6 -0.7,-0.2 -1.4,-0.3 -2.1,-0.7 -0.7,-0.3 -1.4,-0.5 -2.1,-0.8 l -1,-0.4 c -0.3,-0.2 -0.7,-0.3 -1,-0.5 -0.7,-0.4 -1.3,-0.7 -2,-1.1 -0.7,-0.4 -1.3,-0.8 -1.9,-1.3 -0.6,-0.5 -1.3,-0.8 -1.9,-1.3 -0.6,-0.5 -1.2,-1 -1.8,-1.5 -0.6,-0.5 -1.1,-1.1 -1.7,-1.6 -1.2,-1.1 -2.1,-2.3 -3.1,-3.6 -1.9,-2.5 -3.7,-5.2 -5,-8.1 -0.4,-0.7 -0.7,-1.4 -1,-2.1 -0.3,-0.7 -0.6,-1.4 -0.9,-2.2 -0.5,-1.5 -1.2,-2.9 -1.6,-4.3 -0.2,-0.7 -0.5,-1.4 -0.7,-2.2 -0.2,-0.7 -0.4,-1.4 -0.6,-2.1 -0.4,-1.4 -0.7,-2.8 -1.1,-4.2 -0.6,-2.7 -1.1,-5.3 -1.5,-7.8 0,-0.2 -0.1,-0.4 -0.1,-0.6 0.3,1 0.7,2 1.1,3.1 5.5,13.5 18.8,21.2 33,21.2 10.1,0 18.6,-3.3 25.3,-9.9 6.7,-6.6 10.2,-14.7 10.2,-24.2 0,-10.5 -4.6,-19.4 -13.6,-26.6 -7.9,-6.2 -18.8,-9.8 -32.6,-10.5 v -24.5 c 7.8,-0.9 13.7,-2.3 18,-4.3 5.2,-2.5 9.4,-6 12.3,-10.4 3,-4.5 4.5,-9.3 4.5,-14.4 0,-6.7 -2.4,-12.4 -7.1,-16.8 -4.7,-4.4 -10.7,-6.6 -18.1,-6.6 -6.4,0 -12.3,2 -17.5,5.9 -4.3,3.2 -7.5,7.2 -9.6,12 h -28.5 c 2.3,-11.5 6.9,-21 14,-28.3 11.4,-11.8 25.5,-17.5 42.9,-17.5 15.5,0 28,4.7 38.4,14.5 9.3,8.7 14.3,18.6 15.2,30.2 0,0 0,0.5 0.1,1.4 v 0.2 c 0,0.4 0,0.8 0,1.3 0,0.3 0,0.7 0,1 0,1.7 -0.1,3.5 -0.3,5.1 -1.2,11.7 -6.7,31.3 -30.2,37.7 0,0 10.3,3.2 20.5,11 4.2,2.9 7.9,6.3 10.9,10.3 4.5,6 7.4,12.7 8.7,20.2 0,0.2 0.1,0.3 0.1,0.4 0.6,2.9 0.8,5.8 0.8,8.9 z"
   inkscape:connector-curvature="0"
   style="fill:#ffffff" />
	<g
   id="XMLID_3_"
   style="fill:#ffffff">
		<path
   id="XMLID_10_"
   class="st2"
   d="m 352.1,492.5 h 5.1 l 15.4,36 15.7,-36 h 5.1 L 373.1,539 h -1 z"
   inkscape:connector-curvature="0"
   style="fill:#ffffff" />
		<path
   id="XMLID_18_"
   class="st2"
   d="m 500.7,539 v -46.5 h 1 l 31,35.7 v -35.7 h 4.6 V 539 h -1 L 505.6,503.8 V 539 Z"
   inkscape:connector-curvature="0"
   style="fill:#ffffff" />
		<path
   id="XMLID_21_"
   class="st2"
   d="m 576.4,497 v -4.6 h 25.5 v 4.6 h -10.4 v 42 h -4.7 v -42 z"
   inkscape:connector-curvature="0"
   style="fill:#ffffff" />
		<path
   id="XMLID_23_"
   class="st2"
   d="m 636.2,530.3 4,-2.4 c 2.8,5.1 6,7.7 9.6,7.7 1.6,0 3,-0.4 4.4,-1.1 1.4,-0.7 2.4,-1.7 3.1,-2.9 0.7,-1.2 1.1,-2.5 1.1,-3.9 0,-1.6 -0.5,-3.1 -1.6,-4.6 -1.5,-2.1 -4.1,-4.6 -8,-7.5 -3.9,-2.9 -6.3,-5.1 -7.2,-6.4 -1.6,-2.2 -2.5,-4.6 -2.5,-7.1 0,-2 0.5,-3.9 1.5,-5.5 1,-1.7 2.3,-3 4.1,-3.9 1.8,-1 3.7,-1.4 5.7,-1.4 2.2,0 4.2,0.5 6.2,1.6 1.9,1.1 3.9,3.1 6.1,6 l -3.8,2.9 c -1.8,-2.3 -3.2,-3.8 -4.5,-4.6 -1.2,-0.7 -2.6,-1.1 -4,-1.1 -1.9,0 -3.4,0.6 -4.6,1.7 -1.2,1.1 -1.8,2.5 -1.8,4.2 0,1 0.2,2 0.6,2.9 0.4,0.9 1.2,2 2.3,3.1 0.6,0.6 2.6,2.1 6,4.7 4,3 6.8,5.6 8.3,7.9 1.5,2.3 2.2,4.6 2.2,7 0,3.4 -1.3,6.3 -3.8,8.8 -2.6,2.5 -5.7,3.7 -9.3,3.7 -2.8,0 -5.4,-0.8 -7.7,-2.3 -2.4,-1.4 -4.5,-3.9 -6.4,-7.5 z"
   inkscape:connector-curvature="0"
   style="fill:#ffffff" />
		<g
   id="XMLID_9_"
   style="fill:#ffffff">
			<rect
   id="XMLID_25_"
   x="288.60001"
   y="492.5"
   class="st2"
   width="26.700001"
   height="4.8000002"
   style="fill:#ffffff" />
			<rect
   id="XMLID_27_"
   x="288.60001"
   y="513.29999"
   class="st2"
   width="26.700001"
   height="4.8000002"
   style="fill:#ffffff" />
			<rect
   id="XMLID_28_"
   x="288.60001"
   y="534.20001"
   class="st2"
   width="26.700001"
   height="4.8000002"
   style="fill:#ffffff" />
		</g>
		<g
   id="XMLID_16_"
   style="fill:#ffffff">
			<rect
   id="XMLID_30_"
   x="433.60001"
   y="492.5"
   class="st2"
   width="26.700001"
   height="4.8000002"
   style="fill:#ffffff" />
			<rect
   id="XMLID_29_"
   x="433.60001"
   y="513.29999"
   class="st2"
   width="26.700001"
   height="4.8000002"
   style="fill:#ffffff" />
			<rect
   id="XMLID_26_"
   x="433.60001"
   y="534.20001"
   class="st2"
   width="26.700001"
   height="4.8000002"
   style="fill:#ffffff" />
		</g>
	</g>
</g>
</svg>